<?xml version="1.0" encoding="UTF-8"?><svg id="Layer_2" xmlns="http://www.w3.org/2000/svg" viewBox="0 0 512.05 432.08"><defs><style>.cls-1{fill:#98e3a9;}</style></defs><g id="Layer_1-2"><path class="cls-1" d="m152.15,6.28c9.9,8.9,10.7,24,1.8,33.9l-72,80c-4.4,4.9-10.6,7.8-17.2,7.9s-12.9-2.4-17.6-7L7.05,81.08c-9.3-9.4-9.3-24.6,0-34,9.3-9.4,24.6-9.4,33.9,0l22.1,22.1L118.15,7.98c8.9-9.9,24-10.7,33.9-1.8l.1.1Zm0,160c9.9,8.9,10.7,24,1.8,33.9l-72,80c-4.4,4.9-10.6,7.8-17.2,7.9s-12.9-2.4-17.6-7L7.05,241.08c-9.4-9.4-9.4-24.6,0-33.9s24.6-9.4,33.9,0l22.1,22.1,55.1-61.2c8.9-9.9,24-10.7,33.9-1.8h.1Zm71.9-102.2c0-17.7,14.3-32,32-32h224c17.7,0,32,14.3,32,32s-14.3,32-32,32h-224c-17.7,0-32-14.3-32-32Zm0,160c0-17.7,14.3-32,32-32h224c17.7,0,32,14.3,32,32s-14.3,32-32,32h-224c-17.7,0-32-14.3-32-32Zm-64,160c0-17.7,14.3-32,32-32h288c17.7,0,32,14.3,32,32s-14.3,32-32,32H192.05c-17.7,0-32-14.3-32-32Zm-112-48c26.51,0,48,21.49,48,48s-21.49,48-48,48S.05,410.59.05,384.08s21.49-48,48-48Z"/></g></svg>